HIERARCHY
ROOT Hips
{
  OFFSET 265.287 66.7526 -254.649
  CHANNELS 6 Xposition Yposition Zposition Zrotation Xrotation Yrotation
  JOINT LeftUpLeg
  {
    OFFSET 8.64259 1.95398 -2.38835
    CHANNELS 3 Zrotation Xrotation Yrotation
    JOINT LeftLeg
    {
      OFFSET 43.7702 0 0
      CHANNELS 3 Zrotation Xrotation Yrotation
      JOINT LeftFoot
      {
        OFFSET 40.6238 0 0
        CHANNELS 3 Zrotation Xrotation Yrotation
        JOINT LeftToeBase
        {
          OFFSET 12.7242 0 0
          CHANNELS 3 Zrotation Xrotation Yrotation
          End Site
          {
            OFFSET 0 0 0
          }
        }
      }
    }
  }
  JOINT RightUpLeg
  {
    OFFSET -8.2249 1.95398 -2.59336
    CHANNELS 3 Zrotation Xrotation Yrotation
    JOINT RightLeg
    {
      OFFSET 43.5653 0 0
      CHANNELS 3 Zrotation Xrotation Yrotation
      JOINT RightFoot
      {
        OFFSET 40.6238 0 0
        CHANNELS 3 Zrotation Xrotation Yrotation
        JOINT RightToeBase
        {
          OFFSET 12.7242 0 0
          CHANNELS 3 Zrotation Xrotation Yrotation
          End Site
          {
            OFFSET 0 0 0
          }
        }
      }
    }
  }
  JOINT Spine
  {
    OFFSET 0.165834 0.87714 6.61349
    CHANNELS 3 Zrotation Xrotation Yrotation
    JOINT Spine1
    {
      OFFSET 7.38963 1.71661e-005 0
      CHANNELS 3 Zrotation Xrotation Yrotation
      JOINT Spine2
      {
        OFFSET 11.9445 1.14441e-005 0
        CHANNELS 3 Zrotation Xrotation Yrotation
        JOINT Spine3
        {
          OFFSET 14.7254 4.19617e-005 0
          CHANNELS 3 Zrotation Xrotation Yrotation
          JOINT Spine4
          {
            OFFSET 10.9679 0 0
            CHANNELS 3 Zrotation Xrotation Yrotation
            JOINT RightShoulder
            {
              OFFSET 2.46616 -1.6653 3.69651
              CHANNELS 3 Zrotation Xrotation Yrotation
              JOINT RightArm
              {
                OFFSET 13.0012 0 0
                CHANNELS 3 Zrotation Xrotation Yrotation
                JOINT RightForeArm
                {
                  OFFSET 28.7848 1.52588e-005 0
                  CHANNELS 3 Zrotation Xrotation Yrotation
                  JOINT RightHand
                  {
                    OFFSET 26.5688 1.52588e-005 0
                    CHANNELS 3 Zrotation Xrotation Yrotation
                    End Site
                    {
                      OFFSET 0 0 0
                    }
                  }
                }
              }
            }
            JOINT LeftShoulder
            {
              OFFSET 2.38034 -1.29275 -3.7523
              CHANNELS 3 Zrotation Xrotation Yrotation
              JOINT LeftArm
              {
                OFFSET 16.3182 6.10351e-005 0
                CHANNELS 3 Zrotation Xrotation Yrotation
                JOINT LeftForeArm
                {
                  OFFSET 27.0901 0 0
                  CHANNELS 3 Zrotation Xrotation Yrotation
                  JOINT LeftHand
                  {
                    OFFSET 24.5451 1.52588e-005 0
                    CHANNELS 3 Zrotation Xrotation Yrotation
                    End Site
                    {
                      OFFSET 0 0 0
                    }
                  }
                }
              }
            }
            JOINT Neck
            {
              OFFSET 5.0226 -0.0266342 0
              CHANNELS 3 Zrotation Xrotation Yrotation
              JOINT Head
              {
                OFFSET 6.69364 2.86102e-005 0
                CHANNELS 3 Zrotation Xrotation Yrotation
                End Site
                {
                  OFFSET 0 0 0
                }
              }
            }
          }
        }
      }
    }
  }
}
MOTION
Frames:	14
Frame Time:	0.0416667
-75.2239 26.2456 53.3601 -4.26901 2.03919 -87.1766 -166.728 23.9411 101.779 -41.9785 -8.63411 0.128903 55.5012 -0.64264 -9.74163 59.4112 -9.81695 -2.01588 172.323 41.8023 63.0424 -64.3998 -2.70168 -2.21978 73.1842 2.81105 38.3903 73.3672 -3.66997 9.97242 -0.425955 7.59716 -91.0219 11.6649 -1.3264 -1.89828 -0.00669664 -1.40862 -1.83808 -22.5326 -0.694743 -2.20902 -2.51999 -0.694709 -2.209 100.815 -49.9537 -84.273 10.4456 5.73957 7.50365 -39.9355 7.10267 -117.633 -68.2894 -9.93125 9.64059 -71.7592 -8.0668 114.492 -64.101 -43.109 -123.774 24.2935 5.04844 -78.9129 8.82997 0.769917 4.38672 44.2759 5.0941 21.4204 1.09836 -7.6152 -25.6586 
-72.9548 25.3386 54.1526 -3.05929 7.46367 -88.0899 -167.752 13.3427 101.079 -22.9524 -8.39744 1.11902 61.7045 1.57209 -12.7077 74.5376 -13.1906 3.51513 176.053 47.0978 61.3059 -67.9046 -1.15381 -2.90537 73.4174 3.36352 39.8759 75.7072 -3.56785 10.7362 -0.200372 7.39008 -91.2096 12.078 -0.96946 -2.30483 0.405459 -1.06995 -2.25997 -22.1136 -0.232186 -2.48951 -2.10096 -0.232185 -2.48953 100.197 -48.8895 -85.2777 5.77543 5.06702 2.69828 -36.3356 7.45367 -120.341 -78.8935 -7.87824 4.51583 -73.4622 -5.86607 110.402 -64.996 -58.0695 -120.367 22.2619 5.2167 -74.2377 9.86726 0.722931 3.19337 60.5996 6.19732 14.0316 -12.0729 -2.23788 -19.4305 
-70.6641 22.0001 55.8564 -0.078117 15.043 -90.2899 -169.643 4.04986 98.661 -8.66296 -14.1708 2.45189 71.1633 4.81308 -16.7125 74.5264 -12.7904 4.67747 179.398 53.3511 58.2015 -71.6112 -2.22614 -3.10006 74.5765 3.46912 40.2274 72.5631 -4.27902 7.64347 0.158653 6.87687 -91.3284 13.1088 -0.324303 -2.61849 1.4353 -0.439176 -2.60169 -21.079 0.477366 -2.59497 -1.06632 0.477384 -2.59496 98.6437 -48.0051 -87.7924 4.01894 7.45353 2.08416 -34.7179 9.54178 -125.133 -75.802 -8.00442 5.25696 -73.5418 -2.54516 111.238 -58.194 -67.7904 -108.964 20.0558 5.40801 -69.3572 10.5936 0.627627 1.9604 72.1496 6.6026 8.29366 -21.2365 2.22675 -17.1945 
-68.9045 19.7541 58.6059 -3.34973 17.6919 -92.8055 -172.626 -1.16604 95.938 -10.6776 -10.5712 2.89664 76.1445 5.17649 -19.3858 71.8513 -13.3825 0.0629555 -179.833 54.9849 51.1696 -76.0089 -4.22479 -3.25108 75.8095 2.94541 38.6494 70.3211 -3.58769 9.5954 0.37329 7.06392 -91.424 12.738 0.060855 -2.85375 1.06388 -0.0647434 -2.85366 -21.4481 0.915393 -2.70375 -1.43543 0.915403 -2.70373 98.6444 -45.4911 -87.9758 0.988245 10.0069 -1.68812 -34.2604 9.71708 -126.296 -73.5442 -9.65518 7.94967 -73.18 -9.45451 109.968 -39.1645 -68.5269 -95.1411 19.5756 3.81313 -62.5289 13.3061 0.441172 -0.406529 59.9442 8.64751 8.68826 -14.959 3.70054 -16.0123 
-68.3601 16.9406 60.6716 -4.99583 23.5049 -96.6612 -175.32 -4.65741 91.3355 -14.0143 -9.0123 2.65998 77.2039 3.60967 -22.6402 67.1854 -12.6006 -2.70388 -179.41 58.5861 46.5698 -84.3806 -7.35816 -3.05806 74.8571 2.78185 36.6972 68.4973 -4.02911 7.26349 0.497862 6.9757 -91.5878 12.9148 0.227221 -3.20253 1.23997 0.0861248 -3.20943 -21.2669 1.17877 -2.98655 -1.25423 1.17877 -2.98657 99.5145 -38.2492 -86.9838 -0.194474 2.04472 -10.0043 -34.3779 10.7379 -120.232 -73.4316 -8.40997 6.26086 -73.5941 -6.76088 109.555 -28.529 -65.662 -73.998 24.0076 6.78404 -66.3395 18.5066 1.33932 3.37902 27.5663 10.1131 10.049 10.1267 4.53599 -10.9872 
-68.3433 16.3216 61.0451 -6.04943 24.1153 -99.2805 -175.633 -6.71735 89.8981 -13.7727 -9.53289 2.07333 76.2287 1.81732 -28.4267 64.6802 -12.2075 -4.70565 172.273 56.3076 50.0113 -90.0729 -11.0281 -2.29846 71.4366 2.69722 33.4352 70.5326 -2.83818 12.5634 0.915598 7.06638 -91.5825 12.7465 1.06185 -3.28912 1.07173 0.91615 -3.33262 -21.441 2.00093 -2.81853 -1.42835 2.00094 -2.81855 101.229 -35.3188 -83.9406 0.543306 1.5577 -11.187 -32.3039 10.2557 -122.383 -70.4756 -8.96469 7.69664 -75.6395 -4.60886 103.707 -44.0266 -68.6841 -68.2659 17.1434 1.0043 -88.6963 23.3534 2.15571 5.47291 15.1365 9.06434 13.8298 19.8191 3.31443 -7.85961 
-67.7951 15.9194 59.677 -5.92962 20.7446 -101.79 -176.778 -4.65006 88.6083 -19.178 -17.9594 1.63188 75.9098 1.16098 -31.2098 64.6562 -12.3048 -5.0952 161.95 46.9439 52.754 -86.9415 -12.4703 -0.65482 72.6893 2.69438 34.023 67.3942 -3.08545 10.959 1.05568 7.12727 -91.3053 12.6253 1.47445 -2.77917 0.951963 1.35076 -2.84132 -21.573 2.24135 -2.20793 -1.56033 2.24136 -2.20791 102.312 -35.5412 -81.8809 1.37163 2.39697 -7.54761 -31.8912 12.3662 -126.844 -71.403 -9.14243 7.77304 -75.2346 -15.161 103.872 -31.472 -68.3437 -32.0204 15.7954 3.24147 -133.055 21.5971 2.03556 5.61959 20.2647 8.92188 20.6445 16.2246 0.0906402 -11.1272 
-66.3963 16.2891 57.6424 -7.31434 15.4454 -103.417 -175.868 -1.75455 88.7209 -25.9472 -21.8594 1.04113 73.8757 -0.412805 -34.4664 68.5833 -12.1019 0.859916 156.595 33.9086 52.6273 -79.5184 -9.98505 0.681047 72.6739 2.99577 35.0655 65.168 -3.06084 10.5668 0.529209 7.17145 -90.386 12.5379 0.867369 -0.871891 0.866977 0.828161 -0.909227 -21.6693 1.0893 -0.570921 -1.65668 1.08931 -0.570909 100.723 -40.1759 -84.6588 0.21669 5.62764 -1.59101 -33.726 12.9284 -129.3 -71.982 -10.5764 9.5443 -74.2073 -31.9018 103.785 -29.7414 -51.7503 -15.6667 11.3052 -10.3915 -146.207 23.516 2.26783 5.85042 19.1156 7.10585 22.9762 18.5767 -3.20639 -15.0394 
-64.0995 16.8654 54.826 -7.97076 6.62544 -105.337 -175.177 3.61679 90.6548 -33.0159 -21.2443 1.18251 74.5836 -0.872936 -34.5864 69.3696 -12.0847 1.92777 156.078 20.8736 54.1921 -71.8227 -7.85406 0.507131 72.8078 2.7928 34.8509 61.5322 -2.69495 11.5663 -0.0995744 7.0285 -89.2574 12.8135 0.157796 1.46579 1.14176 0.222144 1.45739 -21.3869 -0.289977 1.44545 -1.37425 -0.289981 1.44545 103.769 -40.9099 -79.344 3.42847 5.15951 2.40711 -27.1909 8.06996 -131.643 -77.7478 -7.7564 4.59637 -75.0742 -39.3836 101.648 -35.48 -38.559 -27.4821 18.8292 -25.2211 -145.887 21.7241 2.28211 6.71297 22.7289 3.83155 19.6455 16.9968 -6.14017 -17.2387 
-62.017 18.1004 52.8146 -7.41818 0.813308 -103.118 -173.561 11.3248 95.1723 -40.0351 -17.2645 1.74804 74.0556 -1.55851 -34.292 72.1022 -13.3535 0.473514 159.516 12.5891 60.3628 -62.1736 -4.33047 -0.537235 71.2347 2.78598 35.8892 59.1695 -2.73911 10.6527 -0.335743 7.04134 -88.9849 12.7878 -0.181064 2.05049 1.1152 -0.090647 2.05647 -21.4082 -0.788831 1.9014 -1.39558 -0.788833 1.90137 104.972 -42.1463 -77.3025 6.14772 11.0288 2.24174 -21.5856 1.32416 -132.993 -75.276 -6.60673 3.54262 -75.0714 -30.6853 102.213 -36.2091 -30.8531 -43.0369 18.1922 -19.2938 -140.695 17.6693 2.36494 9.57211 23.1298 3.21148 30.1767 14.5506 -11.6702 -26.6842 
-59.6309 20.5291 51.8313 -4.50333 -7.12693 -102.38 -174.087 22.8485 94.339 -46.8443 -16.0799 1.49123 74.1882 -1.04927 -32.4973 76.4441 -13.9908 2.66875 162.276 13.2366 63.1502 -48.8657 1.83887 -0.880482 69.2312 2.42715 34.4661 59.4006 -2.09664 14.1698 -0.126727 7.15043 -88.9937 12.5667 0.227835 1.98419 0.894295 0.314919 1.97223 -21.6289 -0.378903 1.96097 -1.61623 -0.378916 1.96095 105.125 -41.9141 -76.9831 3.60672 34.7448 4.59484 -17.6688 -8.74737 -141.201 -75.5472 -7.7869 5.09661 -75.5408 -28.6986 101.462 -38.7943 -20.4898 -63.0978 28.5215 -23.2541 -129.795 14.5191 2.27149 11.431 24.9134 1.02175 45.6843 9.75004 -19.6497 -34.1898 
-56.269 23.0741 50.5188 -3.49722 -15.7367 -102.668 -174.197 33.2646 92.5955 -55.6457 -11.6366 0.811326 74.8739 -0.0118257 -28.9796 79.1083 -11.8055 11.0379 163.33 12.8547 62.5114 -33.7738 4.3013 -1.22747 62.1582 2.27076 23.7528 61.3396 -1.87047 16.5406 -0.240944 7.26311 -88.919 12.3422 0.0344036 2.15427 0.669512 0.129161 2.15067 -21.8522 -0.614479 2.06512 -1.83961 -0.614509 2.06508 103.996 -46.5771 -79.2024 14.1108 70.6095 -12.7438 -19.3242 -13.7455 -151.249 -60.6514 -9.56055 11.4115 -76.1429 -28.3884 100.242 -39.9074 -19.6733 -78.0794 33.719 -19.5377 -120.974 11.8152 1.81244 10.8307 24.7309 -0.658141 56.1503 5.21291 -23.9688 -37.4956 
-51.8453 23.5206 47.7598 -2.83693 -22.9175 -102.214 -174.003 42.7269 93.1806 -64.9534 -9.86232 0.743475 76.3217 0.384267 -28.32 78.4044 -11.3761 11.793 164.401 11.7551 62.3961 -24.9111 7.99547 -2.05639 53.3779 4.5164 15.9734 49.3659 -2.34068 9.16853 -0.670744 7.25024 -88.6799 12.3745 -0.705848 2.71616 0.700848 -0.585684 2.74458 -21.8174 -1.48934 2.37878 -1.80476 -1.48933 2.37877 105.344 -40.7924 -76.5739 50.1555 80.5014 -42.4389 -15.1805 -21.0512 -153.96 -52.8262 -7.08113 9.24962 -76.6048 -21.9678 99.579 -46.9328 -21.5119 -89.2074 34.9609 -12.7078 -114.036 15.5232 1.90737 8.26863 25.2235 -1.30769 54.2322 5.58952 -24.1373 -36.81 
-47.4432 22.8438 43.4508 -5.53613 -28.3806 -99.1369 -175.984 49.0754 100.185 -73.6019 -9.57605 1.51635 78.0006 0.0889602 -28.9894 75.8113 -10.1795 13.7587 167.088 8.57763 67.5757 -27.3667 2.80717 -3.09027 57.3861 1.95698 10.9512 77.5654 -2.28654 15.352 -1.16789 7.54483 -88.5337 11.7982 -1.63353 3.0973 0.124415 -1.49569 3.16614 -22.3983 -2.48861 2.46369 -2.38562 -2.48859 2.46373 104.983 -37.5396 -76.9766 119.841 82.9413 -107.042 -16.0825 -23.0646 -154.75 -47.68 -7.62128 12.2821 -76.1374 -16.451 101.125 -48.3109 -21.9756 -102.352 32.3712 -4.29003 -104.058 12.2066 1.36432 6.99775 23.577 -4.35455 45.3209 8.51371 -23.5595 -34.245 
